Coordinates
version=1
nRows=32
nColumns=12
inDegrees=yes

Units are S.I. units (second, meters, Newtons, ...)
Angles are in degrees

endheader
time	SC_y	SC_z	SC_x	AC_y	AC_z	AC_x	GH_y	GH_z	GH_yy	EL_x	PS_y
       0.0               -50.1          19.84          37.93          39.86         0.4006         -10.64         -177.6          26.89         -42.63          56.45          123.7
   0.04323               -50.1          19.85          37.92          39.86         0.4009         -10.64         -177.6           26.9         -42.62          56.45          123.6
   0.08647               -50.1          19.85          37.92          39.86         0.4012         -10.64         -177.6           26.9         -42.61          56.45          123.6
    0.1297               -50.1          19.85          37.91          39.86         0.4015         -10.64         -177.6          26.91         -42.61          56.45          123.6
    0.1729               -50.1          19.85          37.91          39.86         0.4018         -10.63         -177.6          26.91          -42.6          56.45          123.6
    0.2162              -50.09          19.86           37.9          39.86         0.4022         -10.63         -177.5          26.92         -42.59          56.45          123.6
    0.2594              -50.09          19.86           37.9          39.86         0.4025         -10.63         -177.5          26.92         -42.59          56.45          123.6
    0.3026              -50.09          19.86          37.89          39.86         0.4029         -10.62         -177.5          26.93         -42.58          56.45          123.5
    0.3459              -50.08          19.87          37.88          39.86         0.4033         -10.62         -177.5          26.94         -42.57          56.45          123.5
    0.3891              -50.08          19.87          37.88          39.86         0.4038         -10.61         -177.5          26.95         -42.56          56.45          123.5
    0.4323              -50.08          19.88          37.87          39.86         0.4043         -10.61         -177.5          26.95         -42.55          56.45          123.5
    0.4756              -50.07          19.88          37.86          39.86         0.4048         -10.61         -177.4          26.96         -42.54          56.45          123.4
    0.5188              -50.07          19.89          37.85          39.86         0.4054          -10.6         -177.4          26.97         -42.53          56.46          123.4
     0.562              -50.06          19.89          37.84          39.86          0.406         -10.59         -177.4          26.98         -42.51          56.46          123.4
    0.6053              -50.06           19.9          37.83          39.86         0.4066         -10.59         -177.4          26.99          -42.5          56.46          123.3
    0.6485              -50.05           19.9          37.82          39.86         0.4074         -10.58         -177.4          27.01         -42.49          56.46          123.3
    0.6917              -50.05          19.91          37.81          39.86         0.4081         -10.57         -177.3          27.02         -42.47          56.46          123.2
     0.735              -50.04          19.92          37.79          39.86          0.409         -10.57         -177.3          27.03         -42.45          56.46          123.2
    0.7782              -50.03          19.93          37.78          39.87         0.4099         -10.56         -177.3          27.05         -42.43          56.47          123.1
    0.8215              -50.02          19.94          37.76          39.87         0.4109         -10.55         -177.2          27.07         -42.41          56.47          123.1
    0.8647              -50.02          19.95          37.74          39.87          0.412         -10.54         -177.2          27.09         -42.39          56.47          123.0
    0.9079              -50.01          19.96          37.72          39.87         0.4133         -10.53         -177.1          27.11         -42.36          56.47          123.0
    0.9512               -50.0          19.97           37.7          39.87         0.4146         -10.51         -177.1          27.13         -42.34          56.48          122.9
    0.9944              -49.98          19.98          37.68          39.87         0.4161          -10.5         -177.0          27.16          -42.3          56.48          122.8
     1.038              -49.97           20.0          37.65          39.87         0.4178         -10.48         -177.0          27.18         -42.27          56.48          122.7
     1.081              -49.96          20.02          37.62          39.87         0.4196         -10.47         -176.9          27.22         -42.23          56.49          122.6
     1.124              -49.94          20.03          37.58          39.87         0.4217         -10.45         -176.8          27.25         -42.19          56.49          122.5
     1.167              -49.92          20.06          37.55          39.87         0.4241         -10.43         -176.8          27.29         -42.14           56.5          122.4
     1.211               -49.9          20.08           37.5          39.87         0.4267          -10.4         -176.7          27.34         -42.08           56.5          122.2
     1.254              -49.88          20.11          37.46          39.87         0.4297         -10.37         -176.5          27.39         -42.02          56.51          122.0
     1.297              -49.85          20.14           37.4          39.87         0.4331         -10.34         -176.4          27.45         -41.95          56.52          121.9
      1.34              -49.82          20.17          37.34          39.87         0.4371          -10.3         -176.3          27.52         -41.87          56.53          121.6
